<?xml version="1.0" encoding="UTF-8"?>
<svg width="272px" height="29px" viewBox="0 0 272 29" version="1.1" xmlns="http://www.w3.org/2000/svg" xmlns:xlink="http://www.w3.org/1999/xlink">
    <title>s&amp;s_black</title>
    <g id="Page-1" stroke="none" stroke-width="1" fill="none" fill-rule="evenodd">
        <g id="ATB-Showcase" transform="translate(-479.000000, -86.000000)">
            <g id="Group-2" transform="translate(479.000000, 60.058256)">
                <g id="s&amp;s_black" transform="translate(0.000000, 25.941744)">
                    <path d="M0,25.0207374 C2.60231987,27.1923943 5.82643299,28.2590361 9.28339871,28.2590361 C14.0997375,28.2590361 18.1784965,25.5735701 18.1784965,20.360683 C18.1784965,11.6727548 4.69991251,13.09386 4.69991251,7.09139776 C4.69991251,4.28756045 7.34125439,3.1422212 9.71072164,3.1422212 C11.8857186,3.1422212 13.7894806,3.81342513 15.4981326,4.76104539 L16.8191234,2.03655583 C14.7989351,0.812519223 12.3130415,0.259036145 9.94421396,0.259036145 C5.59358037,0.259036145 1.4757994,2.82613099 1.4757994,7.09139776 C1.4757994,16.5305281 14.7215308,14.2398496 14.7215308,20.6767732 C14.7215308,23.6380053 12.1185712,25.3368276 9.51689103,25.3368276 C6.99197547,25.3368276 4.11714127,24.4679047 1.5922257,22.3749452 L0,25.0207374 Z M39.1461067,22.5323399 C37.3203887,24.2701857 35.1453918,25.3368276 32.7369025,25.3368276 C26.9104695,25.3368276 25.2792218,18.5838137 25.2792218,13.9237594 C25.2792218,9.22403115 27.1043001,3.22156895 32.6204762,3.22156895 C34.9118995,3.22156895 36.8540438,3.853099 38.5243135,5.07713561 L40.1945832,2.47101728 C38.0969906,1.12795905 35.7665453,0.259036145 32.4260059,0.259036145 C25.1237735,0.259036145 21.8606384,7.05172389 21.8606384,13.9237594 C21.8606384,20.8738418 24.7354726,28.2590361 32.3876236,28.2590361 C36.3102945,28.2590361 38.8742321,26.7189093 40.9328028,24.7839949 L39.1461067,22.5323399 Z M53.9955785,28.2590361 C61.9196041,28.2590361 64.9102249,20.8738418 64.9102249,13.9627829 C64.9102249,7.0127004 61.4922812,0.259036145 53.9955785,0.259036145 C46.4988758,0.259036145 43.1583364,7.0127004 43.1583364,13.9627829 C43.1583364,20.8738418 46.1105749,28.2590361 53.9955785,28.2590361 L53.9955785,28.2590361 Z M53.9955785,25.4551988 C48.2855718,25.4551988 46.5762801,18.5441399 46.5762801,13.9627829 C46.5762801,9.22403115 48.4410201,3.1422212 53.9955785,3.1422212 C59.6275412,3.1422212 61.4532592,9.22403115 61.4532592,13.9627829 C61.4532592,18.5441399 59.7829895,25.4551988 53.9955785,25.4551988 L53.9955785,25.4551988 Z M79.6733365,28.2590361 C87.5973622,28.2590361 90.587983,20.8738418 90.587983,13.9627829 C90.587983,7.0127004 87.1700392,0.259036145 79.6733365,0.259036145 C72.1766338,0.259036145 68.8367341,7.0127004 68.8367341,13.9627829 C68.8367341,20.8738418 71.7883329,28.2590361 79.6733365,28.2590361 L79.6733365,28.2590361 Z M79.6733365,25.4551988 C73.9633299,25.4551988 72.2546778,18.5441399 72.2546778,13.9627829 C72.2546778,9.22403115 74.1187782,3.1422212 79.6733365,3.1422212 C85.3059389,3.1422212 87.1316569,9.22403115 87.1316569,13.9627829 C87.1316569,18.5441399 85.4607475,25.4551988 79.6733365,25.4551988 L79.6733365,25.4551988 Z M95.9327181,27.7849008 L99.1958532,27.7849008 C99.1958532,27.3901132 99.1958532,20.8348184 99.1568312,17.3194529 C101.059954,17.3591267 104.555941,17.3591267 104.944242,17.3591267 C107.080857,17.3591267 113.489421,16.2924848 113.489421,9.10500952 C113.489421,0.930890457 106.303615,0.930890457 104.555941,0.930890457 L95.9327181,0.930890457 L95.9327181,27.7849008 Z M99.1958532,3.77440164 C100.904505,3.81342513 103.584869,3.81342513 103.97317,3.81342513 C105.876292,3.81342513 110.187904,3.81342513 110.187904,9.18435728 C110.187904,14.5552894 105.682462,14.5552894 103.97317,14.5552894 C103.584869,14.5552894 101.059954,14.5552894 99.1568312,14.5949633 C99.1958532,10.4877416 99.1958532,4.16918922 99.1958532,3.77440164 L99.1958532,3.77440164 Z M156.176935,25.0207374 C158.779255,27.1923943 162.003368,28.2590361 165.460334,28.2590361 C170.277312,28.2590361 174.355431,25.5735701 174.355431,20.360683 C174.355431,11.6727548 160.876847,13.09386 160.876847,7.09139776 C160.876847,4.28756045 163.518189,3.1422212 165.887657,3.1422212 C168.063293,3.1422212 169.965776,3.81342513 171.675067,4.76104539 L172.996058,2.03655583 C170.97651,0.812519223 168.489976,0.259036145 166.121149,0.259036145 C161.770515,0.259036145 157.652734,2.82613099 157.652734,7.09139776 C157.652734,16.5305281 170.897826,14.2398496 170.897826,20.6767732 C170.897826,23.6380053 168.296146,25.3368276 165.693826,25.3368276 C163.168271,25.3368276 160.294076,24.4679047 157.7698,22.3749452 L156.176935,25.0207374 Z M179.217829,27.7849008 L182.480964,27.7849008 C182.480964,27.3901132 182.480964,20.8348184 182.441942,17.3194529 C184.345064,17.3591267 187.841052,17.3591267 188.229353,17.3591267 C190.365968,17.3591267 196.775172,16.2924848 196.775172,9.10500952 C196.775172,0.930890457 189.588726,0.930890457 187.841052,0.930890457 L179.217829,0.930890457 L179.217829,27.7849008 Z M182.480964,3.77440164 C184.190256,3.81342513 186.86998,3.81342513 187.258921,3.81342513 C189.161403,3.81342513 193.473015,3.81342513 193.473015,9.18435728 C193.473015,14.5552894 188.968212,14.5552894 187.258921,14.5552894 C186.86998,14.5552894 184.345064,14.5552894 182.441942,14.5949633 C182.480964,10.4877416 182.480964,4.16918922 182.480964,3.77440164 L182.480964,3.77440164 Z M211.107762,28.2590361 C219.031788,28.2590361 222.022408,20.8738418 222.022408,13.9627829 C222.022408,7.0127004 218.604465,0.259036145 211.107762,0.259036145 C203.611059,0.259036145 200.26988,7.0127004 200.26988,13.9627829 C200.26988,20.8738418 203.222758,28.2590361 211.107762,28.2590361 L211.107762,28.2590361 Z M211.107762,25.4551988 C205.397755,25.4551988 203.688464,18.5441399 203.688464,13.9627829 C203.688464,9.22403115 205.552564,3.1422212 211.107762,3.1422212 C216.739725,3.1422212 218.565443,9.22403115 218.565443,13.9627829 C218.565443,18.5441399 216.895173,25.4551988 211.107762,25.4551988 L211.107762,25.4551988 Z M236.78616,28.2590361 C244.710185,28.2590361 247.700806,20.8738418 247.700806,13.9627829 C247.700806,7.0127004 244.282862,0.259036145 236.78616,0.259036145 C229.289457,0.259036145 225.948918,7.0127004 225.948918,13.9627829 C225.948918,20.8738418 228.900516,28.2590361 236.78616,28.2590361 L236.78616,28.2590361 Z M236.78616,25.4551988 C231.076153,25.4551988 229.367501,18.5441399 229.367501,13.9627829 C229.367501,9.22403115 231.231601,3.1422212 236.78616,3.1422212 C242.418122,3.1422212 244.24384,9.22403115 244.24384,13.9627829 C244.24384,18.5441399 242.573571,25.4551988 236.78616,25.4551988 L236.78616,25.4551988 Z M253.045541,27.7849008 L256.269654,27.7849008 L256.230632,14.120828 C256.230632,11.5537331 256.230632,8.94761481 256.113566,5.98573239 L256.230632,5.98573239 C257.279109,8.27641089 258.094733,10.0136063 258.988401,11.5537331 L268.349204,27.7849008 L272,27.7849008 L272,0.930890457 L268.776527,0.930890457 L268.776527,14.3972443 C268.776527,17.004013 268.815549,19.4917601 268.892953,22.5323399 L268.776527,22.5323399 C268.038307,20.6370994 267.028853,18.6625111 266.174207,17.201732 L256.812764,0.930890457 L253.045541,0.930890457 L253.045541,27.7849008 L253.045541,27.7849008 Z" id="Fill-1" fill="#535353"></path>
                    <path d="M135.535092,1.25903614 C138.810194,1.25903614 141.133246,2.96892482 141.133246,6.38870216 L141.133246,6.38870216 L141.133246,7.30356791 L140.752551,7.70107937 L137.972916,7.70107937 C138.010547,7.30356791 138.010547,6.98529679 138.010547,6.94534918 C138.010547,4.67881349 136.791948,3.96303091 135.459204,3.96303091 C134.278862,3.96303091 133.136152,4.55962554 133.136152,6.82616123 C133.136152,12.2740984 139.343291,19.7888331 146.236559,25.2767179 L146.236559,25.2767179 L146.236559,25.8333649 L144.37009,27.940765 C143.113233,26.9067113 141.857004,25.7934173 140.638405,24.6008829 C138.962597,26.9067113 136.639545,28.2590361 133.897541,28.2590361 C130.089968,28.2590361 126.738351,25.3959058 126.738351,20.9820224 C126.738351,17.8012758 128.833112,15.5340853 131.955811,13.6257683 C130.698954,11.2793374 129.975196,8.97285409 129.975196,6.90540157 C129.975196,3.88379057 131.575116,1.25903614 135.535092,1.25903614 Z M133.174409,15.6539281 C131.346198,16.7272745 129.899307,18.2780276 129.899307,20.6244585 C129.899307,23.2885057 131.726892,25.7934173 134.430639,25.7934173 C136.335366,25.7934173 137.782256,24.6401756 139.000854,22.9708895 C136.754318,20.6244585 134.735445,18.1588397 133.174409,15.6539281 Z" id="Path-2" fill="#DC0000"></path>
                </g>
            </g>
        </g>
    </g>
</svg>