<?xml version="1.0" encoding="UTF-8"?>
<svg width="50px" height="50px" viewBox="0 0 50 50" version="1.1" xmlns="http://www.w3.org/2000/svg" xmlns:xlink="http://www.w3.org/1999/xlink">
    <title>Group 12</title>
    <g id="Page-1" stroke="none" stroke-width="1" fill="none" fill-rule="evenodd">
        <g id="ATB-Showcase" transform="translate(-1270.000000, -710.000000)">
            <g id="Group-12" transform="translate(1270.000000, 710.000000)">
                <path d="M30,27.875 C28.897,27.875 28,26.978 28,25.875 C28,24.772 28.897,23.875 30,23.875 C31.103,23.875 32,24.772 32,25.875 C32,26.978 31.103,27.875 30,27.875 M18,34 C16.897,34 16,33.103 16,32 C16,30.897 16.897,30 18,30 C20.643,30 20.644,34 18,34 M18,22 C16.897,22 16,21.103 16,20 C16,18.897 16.897,18 18,18 C20.643,18 20.644,22 18,22 M30,21.875 C28.779,21.875 27.7,22.434 26.966,23.296 L21.959,20.405 C22.212,17.919 20.269,16 18,16 C15.791,16 14,17.791 14,20 C14,22.209 15.791,24 18,24 C19.347,24 20.532,23.329 21.257,22.309 L26.079,25.093 C25.971,25.637 25.974,26.161 26.088,26.704 L21.141,29.551 C20.409,28.613 19.281,28 18,28 C15.791,28 14,29.791 14,32 C14,34.209 15.791,36 18,36 C20.362,36 22.324,33.928 21.939,31.399 L26.995,28.49 C27.728,29.332 28.796,29.875 30,29.875 C32.209,29.875 34,28.084 34,25.875 C34,23.666 32.209,21.875 30,21.875" id="share-[#1100]" fill="#FFFFFF" transform="translate(24.000000, 26.000000) scale(-1, 1) translate(-24.000000, -26.000000) "></path>
                <circle id="Oval" stroke="#FFFFFF" stroke-width="2" cx="25" cy="25" r="24"></circle>
            </g>
        </g>
    </g>
</svg>